<svg xmlns="http://www.w3.org/2000/svg" width="44.734" height="28.623" viewBox="0 0 44.734 28.623"><defs><style>.a{fill:#f34a38;}</style></defs><g transform="translate(0 -82.519)"><path class="a" d="M15.7,99.783h6.989a8.885,8.885,0,1,1-2.412-9.527.963.963,0,0,0,1.309,0l2.567-2.416a.96.96,0,0,0,0-1.4A14.259,14.259,0,0,0,14.6,82.522a14.312,14.312,0,1,0,14,15.114c.011-.094.018-3.285.018-3.285H15.7a.959.959,0,0,0-.959.959v3.514A.959.959,0,0,0,15.7,99.783Z" transform="translate(0 0)"/><path class="a" d="M332.7,167.482v-3.434a.84.84,0,0,0-.84-.84h-2.89a.84.84,0,0,0-.84.84v3.434H324.7a.84.84,0,0,0-.84.84v2.89a.84.84,0,0,0,.84.84h3.434v3.434a.84.84,0,0,0,.84.84h2.89a.84.84,0,0,0,.84-.84v-3.434h3.434a.84.84,0,0,0,.84-.84v-2.89a.84.84,0,0,0-.84-.84Z" transform="translate(-292.244 -72.812)"/></g></svg>