<svg xmlns="http://www.w3.org/2000/svg" width="36.46" height="36.46" viewBox="0 0 36.46 36.46"><defs><style>.a{fill:#475993;}</style></defs><path class="a" d="M31.549,0H4.915A4.913,4.913,0,0,0,0,4.913V31.547A4.913,4.913,0,0,0,4.915,36.46H18.051l.022-13.029H14.688a.8.8,0,0,1-.8-.8l-.016-4.2a.8.8,0,0,1,.8-.8h3.379V13.576c0-4.709,2.876-7.274,7.077-7.274h3.447a.8.8,0,0,1,.8.8v3.541a.8.8,0,0,1-.8.8H26.46c-2.285,0-2.727,1.086-2.727,2.679v3.513h5.02a.8.8,0,0,1,.793.893l-.5,4.2a.8.8,0,0,1-.793.7h-4.5L23.733,36.46h7.816a4.913,4.913,0,0,0,4.913-4.913V4.913A4.913,4.913,0,0,0,31.549,0Z" transform="translate(-0.002)"/></svg>