<svg xmlns="http://www.w3.org/2000/svg" xmlns:xlink="http://www.w3.org/1999/xlink" width="48.189" height="48.189" viewBox="0 0 48.189 48.189"><defs><style>.a{fill:#2095d2;}.b{filter:url(#a);}</style><filter id="a" x="0" y="0" width="48.189" height="48.189" filterUnits="userSpaceOnUse"><feOffset dy="3" input="SourceAlpha"/><feGaussianBlur stdDeviation="3" result="b"/><feFlood flood-opacity="0.161"/><feComposite operator="in" in2="b"/><feComposite in="SourceGraphic"/></filter></defs><g class="b" transform="matrix(1, 0, 0, 1, 0, 0)"><path class="a" d="M26.123,0H4.07A4.068,4.068,0,0,0,0,4.068V26.121A4.068,4.068,0,0,0,4.07,30.189H14.946L14.965,19.4h-2.8a.661.661,0,0,1-.661-.659l-.013-3.477a.661.661,0,0,1,.661-.664h2.8v-3.36c0-3.9,2.381-6.022,5.86-6.022H23.66a.661.661,0,0,1,.661.661V8.812a.661.661,0,0,1-.661.661H21.909c-1.892,0-2.258.9-2.258,2.218V14.6h4.157a.661.661,0,0,1,.657.739l-.412,3.477a.661.661,0,0,1-.657.583H19.67l-.019,10.788h6.472a4.068,4.068,0,0,0,4.068-4.068V4.068A4.068,4.068,0,0,0,26.123,0Z" transform="translate(9 6)"/></g></svg>